<svg viewBox="0 0 1024 1089.841" xmlns="http://www.w3.org/2000/svg"><path d="M512 32.92c-282.826 0-512 229.174-512 512s229.174 512 512 512 512-229.174 512-512-229.174-512-512-512zm7.616 896.005c-212.222 0-384.005-171.763-384.005-384.005s171.783-384.005 384.006-384.005c103.636 0 190.397 37.834 257.238 100.404L672.67 361.74c-28.63-27.383-78.407-59.188-153.035-59.188-131.19 0-238.02 108.606-238.02 242.365s107.02 242.364 238.02 242.364c152.014 0 209.03-109.173 217.798-165.62l-217.818-.02V490.058l362.613.02c3.194 19.218 6.028 38.418 6.028 63.628.19 219.386-146.818 375.237-368.565 375.237l-.075-.02z"/></svg>